<svg id="Capa_1" data-name="Capa 1" xmlns="http://www.w3.org/2000/svg" xmlns:xlink="http://www.w3.org/1999/xlink" viewBox="0 0 142 104"><defs><style>.cls-1,.cls-5{fill:none;}.cls-2{clip-path:url(#clip-path);}.cls-3{fill:#fff;}.cls-4{font-size:15px;fill:#e1523d;font-family:Hermes-Bold, Hermes;font-weight:700;}.cls-5{stroke:#e1523d;stroke-miterlimit:10;stroke-width:2px;}</style><clipPath id="clip-path"><rect class="cls-1" x="-15" y="2" width="163" height="101"/></clipPath></defs><title>Mesa de trabajo 13</title><g class="cls-2"><path class="cls-3" d="M1.48,70.66c-1.3-5.06.46-12.25,3.92-16l43-46.39c3.46-3.74,10-5.19,14.62-3.23l70.68,30.24c4.58,2,8.33,7.85,8.33,13.09l0,58.46c0,5.24-4,10.1-8.91,10.8L26.79,132.91c-4.9.71-10-2.85-11.27-7.91Z"/><text class="cls-4" transform="translate(17.55 85.05) rotate(0.35)">CONTÁCTENOS</text><path class="cls-5" d="M54.72,46.37,43.07,46.3a3,3,0,0,0-3,2.93L40,59A3,3,0,0,0,43,62l1.88,0a.36.36,0,0,1,.36.36l0,3.85a.35.35,0,0,0,.61.26l4.39-4.34a.39.39,0,0,1,.25-.1l7.89,0a3,3,0,0,0,3-2.94"/><line class="cls-5" x1="48.88" y1="51.93" x2="57.87" y2="51.98"/><line class="cls-5" x1="45.67" y1="56.12" x2="51.15" y2="56.15"/><path class="cls-5" d="M62.54,31.8l24,.14a4.63,4.63,0,0,1,4.6,4.66L91.08,52a4.64,4.64,0,0,1-4.66,4.6l-2.94,0a.56.56,0,0,0-.56.56l0,6a.56.56,0,0,1-1,.39l-6.79-6.88a.59.59,0,0,0-.4-.16L62.39,56.4a4.62,4.62,0,0,1-4.6-4.65l.09-15.35A4.63,4.63,0,0,1,62.54,31.8Z"/><path class="cls-5" d="M68.48,39.46a2.31,2.31,0,0,0,3.79,0"/><path class="cls-5" d="M66.2,46.19c1.32,2.52,4.48,4.32,8.24,4.34s7-1.74,8.3-4.24"/><path class="cls-5" d="M76.75,39.51a2.31,2.31,0,0,0,3.79,0"/><polyline class="cls-5" points="44.38 39.1 45.92 40.67 49.05 37.58"/><line class="cls-5" x1="49.65" y1="40.69" x2="52.78" y2="37.6"/></g></svg>