<svg id="Capa_1" data-name="Capa 1" xmlns="http://www.w3.org/2000/svg" xmlns:xlink="http://www.w3.org/1999/xlink" width="53.97mm" height="35.63mm" viewBox="0 0 153 101">
  <defs>
    <style>
      .cls-1, .cls-5 {
        fill: none;
      }

      .cls-2 {
        clip-path: url(#clip-path);
      }

      .cls-3 {
        fill: #e2533d;
      }

      .cls-4 {
        font-size: 15px;
        fill: #fff;
        font-family: OpenSans-Bold, Open Sans;
        font-weight: 700;
      }

      .cls-5 {
        stroke: #fff;
        stroke-miterlimit: 10;
        stroke-width: 1.6px;
      }
    </style>
    <clipPath id="clip-path">
      <rect class="cls-1" x="-10" width="163" height="101"/>
    </clipPath>
  </defs>
  <title>Mesa de trabajo 4</title>
  <g class="cls-2">
    <g>
      <path class="cls-3" d="M6.48,68.66c-1.3-5.06.46-12.25,3.92-16l43-46.39c3.46-3.74,10-5.19,14.62-3.23l70.68,30.24c4.58,2,8.33,7.85,8.33,13.09l0,58.46c0,5.24-4,10.1-8.91,10.8L31.79,130.91c-4.9.71-10-2.85-11.27-7.91Z"/>
      <text class="cls-4" transform="translate(22.55 83.05) rotate(0.35)">CONTÁCTENOS</text>
      <g>
        <path class="cls-5" d="M59.72,44.37,48.07,44.3a3,3,0,0,0-3,2.93L45,57A3,3,0,0,0,48,60l1.88,0a.36.36,0,0,1,.36.36l0,3.85a.35.35,0,0,0,.61.26l4.39-4.34a.39.39,0,0,1,.25-.1l7.89,0a3,3,0,0,0,3-2.94"/>
        <line class="cls-5" x1="53.88" y1="49.93" x2="62.87" y2="49.98"/>
        <line class="cls-5" x1="50.67" y1="54.12" x2="56.15" y2="54.15"/>
        <path class="cls-5" d="M67.54,29.8l24,.14a4.63,4.63,0,0,1,4.6,4.66L96.08,50a4.64,4.64,0,0,1-4.66,4.6l-2.94,0a.56.56,0,0,0-.56.56l0,6a.56.56,0,0,1-1,.39l-6.79-6.88a.59.59,0,0,0-.4-.16L67.39,54.4a4.62,4.62,0,0,1-4.6-4.65l.09-15.35A4.63,4.63,0,0,1,67.54,29.8Z"/>
        <path class="cls-5" d="M73.48,37.46a2.31,2.31,0,0,0,3.79,0"/>
        <path class="cls-5" d="M71.2,44.19c1.32,2.52,4.48,4.32,8.24,4.34s7-1.74,8.3-4.24"/>
        <path class="cls-5" d="M81.75,37.51a2.31,2.31,0,0,0,3.79,0"/>
        <polyline class="cls-5" points="49.38 37.1 50.92 38.67 54.05 35.58"/>
        <line class="cls-5" x1="54.65" y1="38.69" x2="57.78" y2="35.6"/>
      </g>
    </g>
  </g>
</svg>
