<svg xmlns="http://www.w3.org/2000/svg" width="25.08mm" height="17.3mm" viewBox="0 0 71.1 49.04">
  <defs>
    <style>
      .cls-1 {
        fill: none;
        stroke: #000;
        stroke-miterlimit: 10;
        stroke-width: 2px;
      }
    </style>
  </defs>
  <title>contact-icon</title>
  <g id="Capa_2" data-name="Capa 2">
    <g id="Capa_1-2" data-name="Capa 1">
      <g>
        <path class="cls-1" d="M20.84,20.69,5.1,20.59a4,4,0,0,0-4,4L1,37.81a4,4,0,0,0,4,4H7.51a.5.5,0,0,1,.48.49l0,5.22a.48.48,0,0,0,.83.34L14.72,42a.5.5,0,0,1,.35-.14L25.72,42a4,4,0,0,0,4-4"/>
        <line class="cls-1" x1="12.95" y1="28.2" x2="25.1" y2="28.27"/>
        <line class="cls-1" x1="8.61" y1="33.86" x2="16.01" y2="33.91"/>
        <path class="cls-1" d="M31.41,1l32.47.2A6.25,6.25,0,0,1,70.1,7.49L70,28.23a6.25,6.25,0,0,1-6.29,6.21l-4,0a.76.76,0,0,0-.77.75l0,8.16a.76.76,0,0,1-1.3.53l-9.18-9.29a.75.75,0,0,0-.53-.22l-16.67-.11A6.25,6.25,0,0,1,25,28l.13-20.75A6.25,6.25,0,0,1,31.41,1Z"/>
        <path class="cls-1" d="M39.43,11.36a3.15,3.15,0,0,0,5.13,0"/>
        <path class="cls-1" d="M36.36,20.45c1.78,3.4,6,5.83,11.13,5.86S56.88,24,58.7,20.59"/>
        <path class="cls-1" d="M50.6,11.42a3.14,3.14,0,0,0,5.13,0"/>
        <polyline class="cls-1" points="6.86 10.87 8.95 12.99 13.18 8.81"/>
        <line class="cls-1" x1="13.99" y1="13.02" x2="18.22" y2="8.84"/>
      </g>
    </g>
  </g>
</svg>
