<svg xmlns="http://www.w3.org/2000/svg" width="10.96mm" height="17.59mm" viewBox="0 0 31.07 49.87">
  <defs>
    <style>
      .cls-1 {
        fill: none;
        stroke: #000;
        stroke-miterlimit: 10;
        fill-rule: evenodd;
      }
    </style>
  </defs>
  <title>figure-up</title>
  <g id="Capa_2" data-name="Capa 2">
    <g id="Capa_1-2" data-name="Capa 1">
      <path class="cls-1" d="M24.18,3.83l-2.26-3-2.27,3M5.72,26.27V25m0-.59v-1.8m0-.64V13l16.2-3.65V.83m-10.42,49,.19-23.91h-.08l-1.35,3.39a1,1,0,0,1-.76.6l-5,.39c-.36,0-.43-1.65-.43-1.86a.41.41,0,0,1,.43-.38L8,27.6,9.64,24a2.62,2.62,0,0,1,2-1.63l8-1.58,2.14-2.2.81-6.55c0-.2,2.37,0,2.28.92l-.37,6a2.5,2.5,0,0,1-.61,1.53l-3.75,4.09-.11.26,0,12.76.16,12.25m-2.57,0L16.11,35.4h-.42L14.13,49.82m-1-34.34a2.48,2.48,0,0,1,2.75-2.08,2.48,2.48,0,0,1,2.75,2.08,7.5,7.5,0,0,1-.45,3.08,2.93,2.93,0,0,1-1.86,1.29,2.6,2.6,0,0,1-.88,0,2.94,2.94,0,0,1-1.85-1.29,7.5,7.5,0,0,1-.46-3.08ZM24.51,49.82V35.38l4.07-3.69V21.33m-2.1,2.78,2.1-2.78,2.09,2.78M7.84,49.82V36.62L.8,35M3,37.78.8,35,4,33.73"/>
    </g>
  </g>
</svg>
