<svg xmlns="http://www.w3.org/2000/svg" width="14.58mm" height="18.89mm" viewBox="0 0 41.32 53.54">
  <defs>
    <style>
      .cls-1 {
        fill: none;
        stroke: #000;
        stroke-miterlimit: 10;
        fill-rule: evenodd;
      }
    </style>
  </defs>
  <title>figure-circle</title>
  <g id="Capa_2" data-name="Capa 2">
    <g id="Capa_1-2" data-name="Capa 1">
      <path class="cls-1" d="M3.66,36.58,1,35.14.5,25l.87-7.81c.51-2.73,2.39-4,5.81-3.88,4.77.12,9.67-.16,10.53,4.17l1.43,4.66,6.14.58c1,0,.25,2.49-.44,2.85l-7.79.2L14.94,23M13.78,3.21C12.55,1,6.61.73,6.27,4.29a10.68,10.68,0,0,0,.66,4.39,4.45,4.45,0,0,0,3.12,2.06,3.13,3.13,0,0,0,3.69-2.15c.4-1.25.73-4.13,0-5.38Zm0,50.26.89-21.35.35-14.3M6.55,53.47,9,34.73h.71l.71,18.74m-7.18,0,.6-22.4.71-14M29.8.79l2.43,1-2,1.64L29.8.79Zm1,1.27a9,9,0,0,0-9,8.52m17,4.72A9.05,9.05,0,0,0,35,3.09m5.35,12-2,1.68-.49-2.57,2.5.89Zm-18.79.73,0-2.62,2.28,1.31-2.31,1.31Zm.82-1.36a9,9,0,0,0,14,3.81M29.88,11.1h1.77m4.48-.8-2.1.32m1.09,3.71-1.7-1.27m-1.85,3.4-.31-2.1m-3.72,1.1,1.27-1.71m-3.4-1.85,2.1-.31m-1.1-3.71,1.71,1.27M30,5.73l.31,2.11M34,6.74,32.73,8.45m.06-.09a3.4,3.4,0,1,0,.71,4.76A3.4,3.4,0,0,0,32.79,8.36Z"/>
    </g>
  </g>
</svg>
