<svg xmlns="http://www.w3.org/2000/svg" width="15.99mm" height="19.19mm" viewBox="0 0 45.33 54.4">
  <defs>
    <style>
      .cls-1 {
        fill: none;
        stroke: #000;
        stroke-miterlimit: 10;
        fill-rule: evenodd;
      }
    </style>
  </defs>
  <title>figure-flag</title>
  <g id="Capa_2" data-name="Capa 2">
    <g id="Capa_1-2" data-name="Capa 1">
      <path class="cls-1" d="M6.35,31.75l-.14-8.32-.44-.07L3.7,27.27l2.65,4.48Zm.19,22.59L6.33,44.06l.06-9.74a1.44,1.44,0,0,1-2-.31L1.09,28.93a2.69,2.69,0,0,1,.06-3.43l3.3-5.72C5.71,17.6,14.71,17.9,17,18.48l4.66,2.59L28,19.42c.9-.05.76,3.16,0,3.19l-6,2.06A3.16,3.16,0,0,1,21,24.49L16.92,23l-.14.13c-.07,3.16.07,8.38,0,11.54v9.38l-.2,10.28M15.24,10a10.08,10.08,0,0,1-.61,4.11,3.93,3.93,0,0,1-2.47,1.72,3.34,3.34,0,0,1-1.18,0A4,4,0,0,1,8.5,14.1,10.07,10.07,0,0,1,7.9,10c.17-1.85,1.92-2.78,3.67-2.78s3.49.93,3.67,2.78ZM13.79,54.34l-1.91-18h-.52l-1.95,18M27.24,1.71c2.57.74,4.84,0,7.17-.63a18.65,18.65,0,0,1,10.42.38l0,11.56a8.5,8.5,0,0,0-8.89-.36,9.15,9.15,0,0,1-8.68,0V1.71Zm0,10.93V19.7m0,3.25V54.34"/>
    </g>
  </g>
</svg>
