<svg xmlns="http://www.w3.org/2000/svg" width="16.49mm" height="20.48mm" viewBox="0 0 46.74 58.04">
  <defs>
    <style>
      .cls-1, .cls-2 {
        fill: none;
        stroke: #000;
        stroke-miterlimit: 10;
      }

      .cls-2 {
        fill-rule: evenodd;
      }
    </style>
  </defs>
  <title>figure-pc</title>
  <g id="Capa_2" data-name="Capa 2">
    <g id="Capa_1-2" data-name="Capa 1">
      <g>
        <line class="cls-1" x1="16.17" y1="8" x2="14.81" y2="8"/>
        <line class="cls-1" x1="13.72" y1="8" x2="12.69" y2="8"/>
        <line class="cls-1" x1="22.16" y1="8" x2="17.38" y2="8"/>
        <path class="cls-2" d="M33.9,25.73c0-1.27-1-1.79-2.22-1.67a2.72,2.72,0,0,0-2.53,2.07,6.82,6.82,0,0,0,.07,2.71,2,2,0,0,0,1.44,1.07,1.79,1.79,0,0,0,.76,0,3.34,3.34,0,0,0,1.76-1.27,8.2,8.2,0,0,0,.72-2.87Z"/>
        <path class="cls-2" d="M25.63,34.2c.16-1.36,2.65-2.12,5.17-2.22s5.32.54,5.17,2l0,2.37"/>
        <polyline class="cls-2" points="21.85 33.28 23.22 22.47 42.39 20.07 40.59 36.37 27.95 36.37"/>
        <line class="cls-1" x1="46.74" y1="38.92" x2="14.68" y2="38.92"/>
        <path class="cls-2" d="M.5,36,1.72,46c.37,2.59,1.71,3.81,4.06,3.78l7.84,0"/>
        <path class="cls-2" d="M15.65,19.73c-.14-1.89-1.8-2.91-3.67-3s-3.57.77-3.78,2.64a10.37,10.37,0,0,0,.54,4.21,4.17,4.17,0,0,0,2.48,1.88,3,3,0,0,0,1.19.06A3.88,3.88,0,0,0,15,23.88a10.19,10.19,0,0,0,.69-4.15Z"/>
        <path class="cls-2" d="M16.57,58,15,48.32c0-.4-.22-.62-.68-.63H7.73c-3.12,0-3.8-2.43-3.75-4.8.1-3.15.25-8.32,1.44-11.69,1.59-4.52,6.07-4.11,8.32-2.41,1.46,1.15,2.89,3.93,4,5.47a1,1,0,0,0,.33.2l7.27,1c1.81.42,1,3.13-.54,3.31H17.64a3.85,3.85,0,0,1-1.41-.47l-4.9-4"/>
        <path class="cls-2" d="M12.68,35.73l-1.36,5.72.44.72,5.47,1.27c1.74.35,2.3,2.43,2.42,3.64L20.22,58"/>
        <path class="cls-2" d="M26.84,15.49l3-1-.55-3.42-1.44-.52c-.76-.3-.76-4.82,0-5.12l1.44-.52.55-3.43-3-1c-2.73-.41-2.73,15.38,0,15Z"/>
        <line class="cls-1" x1="37.36" y1="8" x2="38.72" y2="8"/>
        <line class="cls-1" x1="39.81" y1="8" x2="40.84" y2="8"/>
        <line class="cls-1" x1="31.37" y1="8" x2="36.15" y2="8"/>
      </g>
    </g>
  </g>
</svg>
