<svg xmlns="http://www.w3.org/2000/svg" width="19.05mm" height="21.06mm" viewBox="0 0 54.01 59.69">
  <defs>
    <style>
      .cls-1 {
        fill: none;
        stroke: #000;
        stroke-miterlimit: 10;
      }
    </style>
  </defs>
  <title>group-up</title>
  <g id="Capa_2" data-name="Capa 2">
    <g id="Capa_1-2" data-name="Capa 1">
      <g>
        <path class="cls-1" d="M11.41,35.27V32.56l-8.14-9.5L.79,18.9c-.86-2.16.27-6,2.48-6.69L7.34,19l5.42,5.43a6.11,6.11,0,0,0,3.91,1.35h3a6.09,6.09,0,0,0,3.91-1.35L29,19l4.07-6.78c2.21.73,3.34,4.53,2.48,6.69l-2.48,4.16L25,32.56V46.12" transform="translate(0)"/>
        <path class="cls-1" d="M18.19,12.21a4,4,0,0,1,4.07,4.08v1.36a4,4,0,0,1-4.07,4.07,4,4,0,0,1-4.07-4.07V16.29A4,4,0,0,1,18.19,12.21Z" transform="translate(0)"/>
        <path class="cls-1" d="M35.82,43.43a4,4,0,0,1-4.07-4.08V38a4.07,4.07,0,1,1,8.14,0v1.36A4,4,0,0,1,35.82,43.43Z" transform="translate(0)"/>
        <path class="cls-1" d="M27.74,59.69V52.9c0-4.48,4.79-5.42,8.08-5.42h1.52a12.1,12.1,0,0,0,3.91-1.36l5.43-2.71,4.07-9.5h0c2.2.74,3.34,5.89,2.47,8.06l-2.47,5.51-8.09,6.78v5.43" transform="translate(0)"/>
        <path class="cls-1" d="M14.12,47.5a4,4,0,0,0,4.07-4.08V42.06A4,4,0,0,0,14.12,38a4,4,0,0,0-4.07,4.08v1.36A4,4,0,0,0,14.12,47.5Z" transform="translate(0)"/>
        <path class="cls-1" d="M6,59.69V57c0-4.48,4.84-5.42,8.14-5.42s8.14.94,8.14,5.42v2.72" transform="translate(0)"/>
        <line class="cls-1" x1="18.19" y1="6.78" x2="18.19"/>
        <line class="cls-1" x1="23.67" y1="8.14" x2="27.74" y2="4.07"/>
        <line class="cls-1" x1="12.82" y1="8.14" x2="8.75" y2="4.07"/>
      </g>
    </g>
  </g>
</svg>
