<svg xmlns="http://www.w3.org/2000/svg" width="20.74mm" height="22.19mm" viewBox="0 0 58.79 62.91">
  <defs>
    <style>
      .cls-1 {
        fill: none;
        stroke: #000;
        stroke-miterlimit: 10;
        stroke-width: 2px;
      }
    </style>
  </defs>
  <title>man</title>
  <g id="Capa_2" data-name="Capa 2">
    <g id="Capa_1-2" data-name="Capa 1">
      <g>
        <path class="cls-1" d="M38.91,21.73C37.39,27,33.27,30.8,29.36,31c-3.93-.2-8.06-4-9.56-9.32l-.74.11a1.55,1.55,0,0,1-1.76-1.28l-.73-4.67a1.55,1.55,0,0,1,1.29-1.76l.52-.08A7.71,7.71,0,0,1,18,11.68V10a7.68,7.68,0,0,1,7.65-7.65h.91a1,1,0,0,1,.05-.4C27.1.67,30.24.7,33.64,2a17.85,17.85,0,0,1,2,.91A7.69,7.69,0,0,1,40.37,10v1.72A7.71,7.71,0,0,1,40,14l.52.08a1.55,1.55,0,0,1,1.29,1.76l-.73,4.67a1.55,1.55,0,0,1-1.76,1.28l-.42-.06Z"/>
        <line class="cls-1" x1="47.37" y1="53.25" x2="39.11" y2="53.25"/>
        <path class="cls-1" d="M2.37,57.84,1,45.35V44c0-2.91,3-4.6,5.42-5.09,2.24-.46,10.66-2.29,13.39-4.17l.16,0L24.9,57.88l3-15.26-2.51-6.46h8.09l-2.5,6.46,2.87,15.26,5-23.13.17,0c2.72,1.88,11.14,3.71,13.39,4.17,2.46.49,5.41,2.18,5.41,5.09v1.31L56.42,57.84"/>
      </g>
    </g>
  </g>
</svg>
