<svg xmlns="http://www.w3.org/2000/svg" width="18.65mm" height="20.25mm" viewBox="0 0 52.87 57.4">
  <defs>
    <style>
      .cls-1 {
        fill: none;
        stroke: #000;
        stroke-miterlimit: 10;
      }
    </style>
  </defs>
  <title>notebook</title>
  <g id="Capa_2" data-name="Capa 2">
    <g id="Capa_1-2" data-name="Capa 1">
      <g>
        <path class="cls-1" d="M26.57.55.6,20a.25.25,0,0,0,0,.35L26,56.8a.22.22,0,0,0,.33.05l26-19.45a.26.26,0,0,0,.06-.35L26.91.6A.24.24,0,0,0,26.57.55ZM51.79,37.14,26.22,56.3l-1.28-1.82L50.52,35.31Zm-1.55-2.23L24.66,54.07,1.08,20.26l1.29-1,.45.64a.84.84,0,0,0,.09.75A.76.76,0,0,0,4,20.86a.81.81,0,0,0,.17-1.11.75.75,0,0,0-.66-.32l-.44-.64,1.8-1.35.45.63a.83.83,0,0,0,.09.75A.76.76,0,0,0,6.46,19a.82.82,0,0,0,.17-1.11A.77.77,0,0,0,6,17.57l-.44-.64,1.8-1.35.45.64a.79.79,0,0,0,.09.74.74.74,0,0,0,1.07.18A.81.81,0,0,0,9.11,16a.76.76,0,0,0-.66-.33L8,15.07l1.8-1.35.45.64a.81.81,0,0,0,.09.75.74.74,0,0,0,1.06.17.8.8,0,0,0,.18-1.1.78.78,0,0,0-.66-.33l-.44-.63,1.8-1.36.45.64a.81.81,0,0,0,.09.75.75.75,0,0,0,1.06.18.82.82,0,0,0,.18-1.11.75.75,0,0,0-.66-.32L13,11.36,14.77,10l.44.63a.83.83,0,0,0,.1.75.75.75,0,0,0,1.06.18.81.81,0,0,0,.17-1.11.75.75,0,0,0-.65-.32l-.45-.64,1.81-1.35.44.64a.79.79,0,0,0,.1.74.73.73,0,0,0,1.06.18A.8.8,0,0,0,19,8.61a.73.73,0,0,0-.65-.33l-.45-.64,1.81-1.35.44.64a.81.81,0,0,0,.1.75.74.74,0,0,0,1.06.17.8.8,0,0,0,.17-1.1.75.75,0,0,0-.65-.33l-.45-.63,1.81-1.36.44.64a.81.81,0,0,0,.1.75A.75.75,0,0,0,23.81,6,.81.81,0,0,0,24,4.89a.73.73,0,0,0-.65-.32l-.45-.64,1.81-1.35.44.63a.83.83,0,0,0,.09.75.76.76,0,0,0,1.07.18A.8.8,0,0,0,26.46,3a.75.75,0,0,0-.65-.33l-.45-.64,1.3-1Z" transform="translate(0 0)"/>
        <path class="cls-1" d="M27.11,11.47,10.43,24A.78.78,0,0,0,10.27,25l5.64,8.09a.72.72,0,0,0,1,.17L33.62,20.8a.78.78,0,0,0,.16-1.07l-5.64-8.09A.72.72,0,0,0,27.11,11.47Zm6.48,8.41a.52.52,0,0,1-.11.71L16.8,33.09a.48.48,0,0,1-.69-.12l-5.65-8.09a.52.52,0,0,1,.12-.72L27.25,11.67a.48.48,0,0,1,.69.11Z" transform="translate(0 0)"/>
      </g>
    </g>
  </g>
</svg>
