<svg xmlns="http://www.w3.org/2000/svg" width="75.55" height="140.65" viewBox="0 0 75.55 140.65">
  <defs>
    <style>
      .cls-1 {
        fill: #000;
      }
    </style>
  </defs>
  <title>rocket</title>
  <g id="Capa_2" data-name="Capa 2">
    <g id="Capa_1-2" data-name="Capa 1">
      <g>
        <path class="cls-1" d="M70.58,1.33c-.73,1-1.46,1.91-2.14,2.91s-1.16,1.94-1.74,2.9a.64.64,0,0,0,0,.49A.68.68,0,0,0,67,8a.66.66,0,0,0,.48,0l.15-.08a.63.63,0,0,0,.2-.26c.4-.67.78-1.35,1.18-2s.76-1.15,1.16-1.71.91-1.2,1.36-1.8a.64.64,0,0,0-.09-.89.56.56,0,0,0-.2-.11.65.65,0,0,0-.69.2Z"/>
        <path class="cls-1" d="M71.31,1.82a.62.62,0,0,0-.35.34c-.24.71-.48,1.42-.69,2.14S70,5.44,69.8,6s-.4,1.38-.61,2.07a.61.61,0,0,0,0,.48.6.6,0,0,0,.33.35.64.64,0,0,0,.49,0,.56.56,0,0,0,.35-.34c.2-.63.38-1.26.57-1.89l.48-1.75c.23-.76.47-1.52.72-2.27a.63.63,0,0,0-.33-.84l-.06,0a.61.61,0,0,0-.42,0Z"/>
        <path class="cls-1" d="M71.46,0a1.48,1.48,0,0,0-.8.16c-.25.13-.49.3-.73.45l-1.2.76C67.89,1.91,67,2.43,66.23,3s-1.67,1.22-2.49,1.85L61.4,6.67c-.8.64-1.59,1.3-2.37,2s-1.44,1.28-2.16,1.92-1.61,1.47-2.4,2.21q-2.13,2-4.09,4.11c-2.74,3-5.5,6-8,9.18-.58.72-1.14,1.45-1.69,2.19s-1.2,1.58-1.78,2.39c-1.18,1.65-2.37,3.31-3.51,5-.58.86-1.16,1.71-1.72,2.58l-1,1.49c-.29.44-.55.9-.83,1.36-1,1.71-2,3.45-3,5.2s-2,3.54-2.9,5.36c-.46.93-.91,1.86-1.36,2.79s-.82,1.82-1.23,2.73-.85,1.94-1.27,2.91-.69,1.73-1,2.6-.7,1.88-1,2.83c-.14.43-.3.87-.43,1.31s-.38,1.16-.53,1.75c-.27,1-.53,1.93-.76,2.91s-.5,2.08-.74,3.11-.42,2-.63,3-.33,1.84-.46,2.76a.92.92,0,0,0,1.82.25c.13-.93.27-1.85.46-2.76s.4-2,.63-3,.48-2.07.73-3.11.47-1.82.71-2.73c.16-.53.33-1.06.49-1.59s.3-.9.45-1.35c.31-.9.63-1.79,1-2.67s.7-1.84,1.09-2.74.84-2,1.27-2.92.77-1.76,1.18-2.62.94-1.94,1.42-2.9c.91-1.82,1.91-3.59,2.91-5.36q1.23-2.19,2.49-4.35c.49-.8,1-1.61,1.48-2.4s1.17-1.78,1.76-2.66q1.73-2.55,3.51-5c.59-.82,1.18-1.63,1.79-2.43s1.09-1.48,1.66-2.2,1.24-1.55,1.88-2.31,1.46-1.7,2.2-2.54c1-1.17,2-2.31,3.1-3.45.59-.65,1.18-1.3,1.79-1.94s1.19-1.26,1.8-1.88,1.41-1.35,2.12-2,1.57-1.44,2.36-2.14,1.38-1.24,2.08-1.85S62.19,8.36,63,7.73q2.07-1.64,4.21-3.18c.71-.51,1.43-1,2.17-1.45l1.13-.71.6-.38c.08.24.15.49.21.74l0-.17c.11.46.2.91.28,1.38s.13.93.19,1.4c.13,1,.26,2,.37,3.06s.24,2,.34,3,.17,1.8.25,2.7c.19,2,.38,4,.55,6s.3,4,.42,6c.07,1.13.1,2.27.12,3.41,0,1.91,0,3.82-.13,5.73-.05,1-.09,2-.14,3.08s-.07,1.92-.16,2.87q-.27,3.09-.57,6.18c-.09.95-.21,1.89-.33,2.83s-.25,1.93-.38,2.89-.28,2.13-.43,3.19c-.13.9-.31,1.8-.5,2.69s-.43,2.07-.67,3.09c-.11.5-.21,1-.34,1.5s-.28,1.11-.43,1.66-.32,1.26-.49,1.88c-.12.45-.25.9-.37,1.34s-.33,1-.49,1.55c-.29,1-.64,1.89-1,2.83s-.61,1.77-.9,2.66-.69,1.94-1.06,2.91c-.16.42-.32.85-.49,1.27s-.4,1-.59,1.43c-.37.9-.73,1.8-1.12,2.7-.76,1.77-1.62,3.49-2.42,5.25-.13.3-.28.59-.4.9a9.05,9.05,0,0,0-.3,1c-.07.2-.14.4-.22.61a2.42,2.42,0,0,0-.29,1.11.9.9,0,0,0,1,.77.93.93,0,0,0,.79-.82,2,2,0,0,1,.09-.22c.06-.15.11-.31.17-.46a6.82,6.82,0,0,0,.28-1,7.59,7.59,0,0,1,.4-1c.18-.4.37-.8.55-1.21.4-.86.81-1.72,1.21-2.59.2-.45.41-.89.61-1.33s.44-1,.65-1.55c.36-.86.71-1.73,1.07-2.59s.73-1.88,1.09-2.83.64-1.85,1-2.78l.93-2.73.54-1.58c.18-.52.33-1.06.5-1.58s.28-1,.41-1.48.29-1,.42-1.57c.24-.89.48-1.78.69-2.68s.44-2,.65-3,.46-2.07.63-3.11c.34-2,.58-4,.84-5.93.13-1,.26-2.08.38-3.12s.17-1.83.26-2.75.2-2,.29-3c0-.51.09-1,.13-1.52l.09-1.67q.15-3,.26-5.92c0-1,0-1.95.05-2.92,0-.57,0-1.13,0-1.7s0-1.08,0-1.61c0-.95-.1-1.9-.16-2.85s-.14-2.08-.21-3.12c-.14-1.93-.32-3.87-.5-5.8-.09-1-.19-2-.28-2.93s-.18-2-.29-3c-.24-2-.44-4-.73-6-.07-.45-.16-.89-.27-1.33-.06-.27-.13-.54-.21-.8s-.09-.31-.15-.46a3.09,3.09,0,0,0-.14-.32L72.37.54,72.15.32a1.06,1.06,0,0,0-.44-.25L71.46,0Zm0,1.79h0Z"/>
        <path class="cls-1" d="M59.49,92c-.34.7-.5,1.47-.86,2.15l-.18.27-.43,0c-.17,0-.35,0-.52,0-.38,0-.76,0-1.14-.07s-.93-.12-1.4-.18l-2.67-.38c-1-.13-1.91-.27-2.86-.43s-1.93-.37-2.9-.58l-2.63-.58c-.88-.19-1.75-.43-2.61-.64l-2.53-.74L36,90c-1-.31-2-.62-2.92-1s-1.7-.62-2.55-1c-1.36-.53-2.75-1-4.08-1.6a40,40,0,0,1-3.55-1.87,13.71,13.71,0,0,1-1.61-1.13c-.54-.43-1-.92-1.54-1.4-.25-.26-.5-.52-.74-.79a11,11,0,0,1-.82-1,.91.91,0,0,0-1.44,1.1,11,11,0,0,0,1,1.24c.35.39.73.77,1.11,1.13A16.51,16.51,0,0,0,21,85.58c.82.55,1.68,1,2.54,1.51s1.7.87,2.57,1.27,1.71.66,2.56,1l2.75,1.06c.92.35,1.86.65,2.8.94s1.8.57,2.71.83,1.8.55,2.71.81,2,.54,3,.79q2.85.69,5.75,1.25c.94.19,1.9.33,2.86.47l2.7.37c.89.12,1.78.27,2.67.32.44,0,.88,0,1.33,0l.54,0a1.57,1.57,0,0,0,.74-.16,1.73,1.73,0,0,0,.32-.2,2.84,2.84,0,0,0,.24-.26,2.43,2.43,0,0,0,.2-.28,4.38,4.38,0,0,0,.5-1c.22-.53.38-1.09.63-1.61a.91.91,0,0,0-.47-1.19l-.09,0a.92.92,0,0,0-1.1.5Z"/>
        <path class="cls-1" d="M18.34,73.78a1,1,0,0,0-.19.69.91.91,0,0,0,.35.6c.27.24.54.49.8.75l-.17-.17a27.61,27.61,0,0,0,2.19,2c.36.29.73.57,1.12.83l1.12.7c.85.53,1.69,1.07,2.56,1.55s1.6.85,2.41,1.26,1.7.84,2.57,1.22,1.74.75,2.62,1.11,1.87.78,2.8,1.19,1.7.73,2.57,1c1.82.65,3.66,1.22,5.51,1.8,1,.31,2,.56,3,.82s1.88.51,2.82.75,1.62.38,2.44.55,1.68.31,2.52.43l2.38.33a11.48,11.48,0,0,0,1.17.07,5.33,5.33,0,0,0,.8,0,3.8,3.8,0,0,0,.58-.06,1,1,0,0,0,.58-.34.9.9,0,0,0,.19-.67.94.94,0,0,0-.34-.59.89.89,0,0,0-.67-.18,5,5,0,0,1-.87.08c-.4,0-.8,0-1.2-.07l-1.32-.18c-.9-.13-1.8-.26-2.7-.42s-1.84-.37-2.76-.58-1.87-.49-2.8-.73L46,86.92c-.62-.18-1.23-.38-1.84-.57l-.94-.3c-.92-.28-1.83-.58-2.74-.9s-1.78-.65-2.65-1-1.84-.8-2.77-1.18c-1.57-.66-3.15-1.31-4.69-2s-2.89-1.44-4.28-2.25l-1.38-.86c-.47-.3-1-.59-1.42-.9a11.66,11.66,0,0,1-1.23-1c-.46-.4-.91-.81-1.35-1.22S20,74,19.63,73.62a.76.76,0,0,0-.28-.15,1,1,0,0,0-1,.31Z"/>
        <path class="cls-1" d="M51.49,16.59A.92.92,0,0,0,51,17.78c.08.24.17.47.26.71a5.62,5.62,0,0,0,.4.77,5.51,5.51,0,0,0,1,1.09l.6.54c.33.29.7.55,1.06.81s.8.57,1.2.85A28.76,28.76,0,0,0,58.05,24c.22.11.45.2.67.3l.62.26c.42.16.83.32,1.26.47.83.29,1.67.56,2.51.82l.87.28c.59.2,1.18.39,1.79.54.89.22,1.79.37,2.7.51a13.27,13.27,0,0,0,2.67.17,12.51,12.51,0,0,0,2.5-.39h0a3.68,3.68,0,0,0,.85-.28A.88.88,0,0,0,75,25.55a.87.87,0,0,0-.48-.48.85.85,0,0,0-.7,0,1.36,1.36,0,0,1-.3.13l-.31.09-.47.09a7.62,7.62,0,0,1-.81.14,10,10,0,0,1-1.44.11,17.09,17.09,0,0,1-2.14-.24c-.78-.12-1.55-.26-2.31-.45s-1.4-.44-2.1-.67-1.52-.47-2.28-.74-1.5-.55-2.24-.86a21.76,21.76,0,0,1-2.14-1.12c-.65-.42-1.28-.86-1.9-1.31a14.29,14.29,0,0,1-1.7-1.41,4.88,4.88,0,0,1-.53-.67,9.9,9.9,0,0,1-.42-1.07.86.86,0,0,0-.56-.51.94.94,0,0,0-.64,0Z"/>
        <path class="cls-1" d="M56.82,34.69a.88.88,0,0,0-.36,0,9.76,9.76,0,0,0-1.08,0H53.92c-.92,0-1.83.08-2.74.19a11.29,11.29,0,0,0-1.54.28,13.53,13.53,0,0,0-1.36.45,11.58,11.58,0,0,0-2.65,1.34,12.36,12.36,0,0,0-2.31,2c-.33.37-.65.75-1,1.14a14.81,14.81,0,0,0-.84,1.28q-.36.6-.66,1.23c-.23.49-.43,1-.62,1.51a9.89,9.89,0,0,0-.36,1.32,10.93,10.93,0,0,0-.2,1.6c0,.23,0,.46,0,.69a9,9,0,0,0,0,1,13,13,0,0,0,1.13,4,9.62,9.62,0,0,0,.91,1.59,12,12,0,0,0,1.31,1.61,17.14,17.14,0,0,0,1.58,1.36,17.83,17.83,0,0,0,1.91,1.3,9.35,9.35,0,0,0,1.93.8,9.93,9.93,0,0,0,2.09.42,11.34,11.34,0,0,0,2,0,13,13,0,0,0,1.52-.25l.76-.17c.27-.06.54-.16.81-.24s.39-.13.58-.2.4-.15.6-.24l.76-.32a11.65,11.65,0,0,0,1.83-1,18.72,18.72,0,0,0,2-1.62c.18-.16.34-.34.5-.51l.46-.51a5.71,5.71,0,0,0,.39-.47c.19-.25.4-.5.58-.77s.3-.47.46-.7a11.4,11.4,0,0,0,.74-1.38,10.16,10.16,0,0,0,.64-1.93c.07-.3.12-.6.17-.9s.06-.47.09-.7a8.24,8.24,0,0,0,0-1.72c0-.49-.12-1-.19-1.46A8.92,8.92,0,0,0,65,43.18c-.16-.46-.32-.91-.51-1.35a13.54,13.54,0,0,0-.65-1.39c-.24-.42-.49-.83-.76-1.23s-.6-.85-.93-1.26a8.39,8.39,0,0,0-.88-1A9.53,9.53,0,0,0,60.11,36c-.19-.13-.38-.26-.58-.38a7,7,0,0,0-1.34-.58L58,35a11.61,11.61,0,0,0-1.16-.3ZM58,36.89a7.54,7.54,0,0,1,.93.49,4.56,4.56,0,0,1,.39.27,9.78,9.78,0,0,1,.85.74c.23.25.44.51.65.78a15.9,15.9,0,0,1,1,1.43c.16.26.32.52.46.79s.28.55.41.84.35.85.5,1.29A10.14,10.14,0,0,1,63.6,45l0-.22c0,.32.09.63.13.95l.06.5a7.39,7.39,0,0,1,0,1.33c0,.27-.06.55-.11.82a12,12,0,0,1-.52,2,9.09,9.09,0,0,1-.8,1.55l-.49.74-.43.57c-.09.13-.21.24-.31.36s-.17.21-.26.3-.42.45-.64.65-.63.56-1,.83a14.13,14.13,0,0,1-2.32,1.42l-.74.32c-.17.07-.34.12-.51.18a3.16,3.16,0,0,1-.43.16c-.31.09-.63.2-1,.27s-.9.2-1.35.28a9.3,9.3,0,0,1-2.11,0,11.37,11.37,0,0,1-2.5-.59,11.4,11.4,0,0,1-2.27-1.32,14.18,14.18,0,0,1-2.41-2.23,11.67,11.67,0,0,1-1.32-2.2,13.18,13.18,0,0,1-.81-2.82,11.65,11.65,0,0,1,0-2.13c.06-.44.14-.88.23-1.32a9.63,9.63,0,0,1,.39-1.26c.23-.52.46-1,.74-1.54s.59-1,.91-1.46.63-.77,1-1.14a14.06,14.06,0,0,1,1.14-1c.41-.3.82-.58,1.25-.85a13,13,0,0,1,1.17-.61c.42-.16.84-.32,1.26-.45a9.84,9.84,0,0,1,1.4-.34,22.43,22.43,0,0,1,2.58-.21c.88,0,1.76,0,2.63,0a4,4,0,0,1,.58.12.79.79,0,0,0,.43,0c.3.08.58.17.87.27Zm2.77,2.22,0,0,0,0Zm.06.07.09.11-.09-.11Z"/>
        <path class="cls-1" d="M55.14,40.57a5.71,5.71,0,0,0-1-.14,10.4,10.4,0,0,0-2.43-.06,7.85,7.85,0,0,0-1.9.51,10.59,10.59,0,0,0-1,.46,7.26,7.26,0,0,0-2.24,2.19,9.13,9.13,0,0,0-1,1.66,8.82,8.82,0,0,0-.52,1.89,9,9,0,0,0-.09,1,5.81,5.81,0,0,0,.14,1.1,7.74,7.74,0,0,0,.54,1.69,4.16,4.16,0,0,0,.47.71c.22.28.46.55.71.81a12.23,12.23,0,0,0,1.08.95c.23.18.48.36.72.53a6.46,6.46,0,0,0,1.53.77,7.64,7.64,0,0,0,2.37.39,10.77,10.77,0,0,0,1.27,0,3.75,3.75,0,0,0,.67-.11l.33-.1a7,7,0,0,0,.85-.36A5.53,5.53,0,0,0,57,53.65a6.51,6.51,0,0,0,1.25-1.37A9.19,9.19,0,0,0,59,51.05a14.42,14.42,0,0,0,.6-1.46,10.55,10.55,0,0,0,.34-1.37,6.72,6.72,0,0,0,.15-2.4,4.81,4.81,0,0,0-.19-.9,8,8,0,0,0-.5-1.22,4.42,4.42,0,0,0-.63-.86q-.18-.23-.36-.42a4.71,4.71,0,0,0-.42-.36,10.13,10.13,0,0,0-1-.72,4,4,0,0,0-.79-.43l-.48-.18-.58-.16Zm.29,1.91a7.24,7.24,0,0,1,1.24.76l.47.41a5,5,0,0,1,.48.55,4.08,4.08,0,0,1,.34.57,7.19,7.19,0,0,1,.36,1.11,4.24,4.24,0,0,1,0,.51c0,.2,0,.41,0,.62-.07.45-.16.9-.26,1.34a9.77,9.77,0,0,1-.39,1.27,9.3,9.3,0,0,1-.43.9c-.18.31-.37.6-.57.9a7.34,7.34,0,0,1-.91.94,6.07,6.07,0,0,1-.81.5l-.27.13c-.26.09-.52.19-.79.26s-.67,0-1,0-.7,0-1,0a7.1,7.1,0,0,1-1.27-.3,7.72,7.72,0,0,1-.94-.51l-.29-.2a11.88,11.88,0,0,1-1.75-1.65,5.16,5.16,0,0,1-.4-.63,8.35,8.35,0,0,1-.37-1.41,4.94,4.94,0,0,1,0-.86,7.57,7.57,0,0,1,.38-1.63,7,7,0,0,1,.37-.78,7.41,7.41,0,0,1,.6-.9,7.17,7.17,0,0,1,1.06-1.14l.38-.26a3.69,3.69,0,0,1,.62-.33,7.5,7.5,0,0,1,1.44-.45,8.66,8.66,0,0,1,1.44,0,1,1,0,0,0,.34.06l.2,0,.18,0H54a1.42,1.42,0,0,0,.41,0,5.45,5.45,0,0,1,1.06.25Z"/>
        <path class="cls-1" d="M22.41,61.69a1,1,0,0,0-.68.12c-.65.35-1.32.69-2,1s-1.23.65-1.87.94l-1.23.57c-.49.22-1,.45-1.44.69s-.85.44-1.28.66-.75.37-1.11.58a4,4,0,0,0-1.16,1.3,13.81,13.81,0,0,0-.7,1.25c-.23.45-.41.93-.61,1.39S10,71,9.89,71.39c-.48,1.26-1,2.52-1.43,3.79-.65,1.77-1.29,3.55-2,5.31s-1.39,3.63-2.07,5.44S3,89.75,2.36,91.67,1.21,95.26.73,97.09C.5,98,.27,98.93.1,99.87a4.59,4.59,0,0,0-.1.83,1,1,0,0,0,.73.86,1,1,0,0,0,1-.37c.33-.38.64-.78,1-1.17,1.25-1.56,2.48-3.13,3.71-4.69s2.43-3,3.73-4.38,2.58-2.83,3.81-4.3q.88-1.05,1.74-2.13c.61-.77,1.21-1.55,1.78-2.36a.87.87,0,0,0,.06-.67.92.92,0,0,0-.43-.52.89.89,0,0,0-.68-.06l-.2.09a1,1,0,0,0-.32.34l-.09.13c-.52.72-1.08,1.42-1.63,2.11s-1.19,1.48-1.81,2.2c-1.29,1.51-2.62,3-4,4.44s-2.54,2.93-3.74,4.46L2.8,97l-.33.41c.18-.69.37-1.38.58-2.07.27-1,.57-1.89.88-2.82s.62-1.77.93-2.66l.6-1.71q1-2.61,2-5.21l1.08-2.8c.35-.92.69-1.85,1-2.78l.54-1.45h0l0-.06c.46-1.25.93-2.51,1.42-3.75a20.54,20.54,0,0,1,1.78-3.76c.13-.17.26-.34.4-.49s.41-.22.61-.33l1-.51,1.85-.92c.88-.4,1.78-.79,2.64-1.24s1.95-1,2.92-1.52A.92.92,0,0,0,23,62.1a.93.93,0,0,0-.5-.39l-.08,0ZM18,63.74l0,0,0,0Z"/>
        <path class="cls-1" d="M66.78,77.86a.9.9,0,0,0-.86,1,16.34,16.34,0,0,0,.43,2.5c.2.75.43,1.5.66,2.24l.66,2c.1.33.21.65.31,1s.14.44.2.66h0c-.05.27-.15.53-.22.79s-.21.8-.32,1.2c-.25.9-.45,1.81-.67,2.71-.46,1.91-1.07,3.79-1.69,5.65-.13.39-.27.78-.41,1.17-.33.88-.67,1.75-1,2.63l-1,2.86c-.31.83-.61,1.67-.92,2.51q-1,2.56-2,5.12c-.32.82-.67,1.63-1,2.45s-.65,1.72-1,2.58l-.09.25A1,1,0,0,0,58,118a1,1,0,0,0,.57.4.88.88,0,0,0,.67-.12.9.9,0,0,0,.4-.57,1.1,1.1,0,0,0,0-.25c0-.13.09-.26.13-.38l.17-.47c.3-.82.62-1.64,1-2.45s.67-1.67,1-2.52c.72-1.84,1.43-3.7,2.11-5.56.28-.76.56-1.53.83-2.29.69-1.86,1.42-3.71,2.08-5.58s1.19-3.7,1.7-5.57c.12-.45.21-.91.32-1.36s.22-.89.33-1.34.23-.85.35-1.28c0-.16.09-.33.13-.5s.12-.34.16-.52a2.32,2.32,0,0,0,0-.53,3.18,3.18,0,0,0-.15-.68c-.11-.41-.25-.81-.38-1.21l-.84-2.66a25.75,25.75,0,0,1-.74-2.74c-.05-.37-.1-.74-.14-1.11a.92.92,0,0,0-.28-.62.94.94,0,0,0-.35-.2.85.85,0,0,0-.32,0Z"/>
        <path class="cls-1" d="M59.27,95a.93.93,0,0,0-.63.29,1,1,0,0,0-.24.66q-.24,4.57-.62,9.13c-.1,1-.2,1.93-.31,2.9s-.21,1.91-.3,2.86-.16,1.86-.28,2.79-.17,1.86-.24,2.79l0,.42c0,.48-.1,1-.14,1.44v0c-.05.51-.07,1-.09,1.55,0,.11,0,.22,0,.33a1.6,1.6,0,0,0,0,.54,1.05,1.05,0,0,0,.27.44.91.91,0,0,0,.48.26.89.89,0,0,0,.46,0A.88.88,0,0,0,58,121a1.6,1.6,0,0,0,.25-.27,5.68,5.68,0,0,0,.8-1.47c.21-.52.4-1,.58-1.56l.3-.83a.88.88,0,0,0,.05-.15.9.9,0,0,0-.38-1.23.94.94,0,0,0-.7-.06,1.08,1.08,0,0,0-.45.3l.09-1.18c0-.36.08-.73.13-1.09s.08-.76.12-1.15.07-.78.1-1.17.09-.79.13-1.18c.17-1.64.38-3.27.52-4.91v.1c0-.07,0-.15,0-.22h0c.12-1.43.21-2.87.32-4.31.13-1.61.22-3.22.31-4.83a.89.89,0,0,0-.29-.63.94.94,0,0,0-.35-.2,1.1,1.1,0,0,0-.31,0Zm-1.5,10.24v0Zm1.89,12.59,0,.12,0-.12Zm-3-.85v0Zm-.14,1.42v0Z"/>
        <path class="cls-1" d="M51.56,95.21a10.35,10.35,0,0,1-.57,1,1.51,1.51,0,0,1-.21.23l-.09.08a6.8,6.8,0,0,1-1.19.71l.21-.09-.5.23a2,2,0,0,1-.47.16h0c-.5.06-1,.07-1.49.08-.32,0-.63,0-.94,0l-.94-.05-1-.13L43,97.25c-.8-.15-1.6-.32-2.4-.46a21.75,21.75,0,0,1-2.53-.63l-1.2-.4-1.2-.41c-.69-.25-1.37-.53-2-.8s-1.52-.57-2.27-.88c-.34-.14-.67-.33-1-.51l-1.11-.59c-.67-.37-1.33-.76-2-1.18a13.52,13.52,0,0,1-2.39-2.07,4,4,0,0,1-.33-.47,2.64,2.64,0,0,1-.12-.4,2.82,2.82,0,0,1,0-.58c0-.21,0-.43.07-.64a1.07,1.07,0,0,0-.12-.68.91.91,0,0,0-1.26-.29.85.85,0,0,0-.41.58,8.14,8.14,0,0,0-.11,1.39,4.19,4.19,0,0,0,.1.71,2.34,2.34,0,0,0,.17.53,2.91,2.91,0,0,0,.35.62,8.06,8.06,0,0,0,1.36,1.46,20.88,20.88,0,0,0,2.27,1.69c.8.5,1.63,1,2.46,1.39.41.22.82.44,1.25.63s.89.35,1.34.52l2.58,1c.91.34,1.83.65,2.76.95.42.14.85.28,1.28.4s.84.21,1.27.3l1.17.22c.44.09.87.18,1.31.25s.79.14,1.2.2.83.13,1.26.17.85.08,1.28.1.79.05,1.19.05a9.7,9.7,0,0,0,1.94-.14l-.23,0a3.8,3.8,0,0,0,.67-.14,9.1,9.1,0,0,0,.84-.39l-.14.07c.29-.13.56-.27.84-.43a5.88,5.88,0,0,0,.72-.51,2.92,2.92,0,0,0,.45-.41,4.6,4.6,0,0,0,.4-.58c.17-.29.33-.6.49-.9a.89.89,0,0,0-.38-1.2.42.42,0,0,0-.14-.06.91.91,0,0,0-1.07.43Zm-16,.09.11,0-.11,0Z"/>
        <path class="cls-1" d="M26.29,91.56a11.29,11.29,0,0,0-2,1c-.47.28-.93.57-1.39.86-.86.55-1.66,1.19-2.47,1.81s-1.58,1.33-2.34,2-1.44,1.42-2.13,2.15c-.31.34-.61.69-.91,1-.15.17-.29.35-.43.53s-.29.34-.42.52c-.63.87-1.26,1.74-1.81,2.67-.24.41-.46.83-.68,1.25s-.46.89-.66,1.35l-.27.69c-.07.18-.13.36-.2.55a3.33,3.33,0,0,0-.19,1.09,2.52,2.52,0,0,0,.1.46,2.49,2.49,0,0,0,.2.4,2,2,0,0,0,.27.31,1.39,1.39,0,0,0,.56.27l.24,0a1.31,1.31,0,0,0,.28,0,2.88,2.88,0,0,0,.51-.1,4.45,4.45,0,0,0,1.06-.37,14,14,0,0,0,1.34-.81c.38-.27.74-.57,1.1-.87l.67-.55c-.27.67-.55,1.33-.85,2-.39.88-.79,1.76-1.15,2.65s-.78,2-1.13,3c-.15.42-.29.83-.42,1.25l-.22.75c-.07.26-.13.54-.19.81-.11.47-.19,1-.26,1.44s-.15,1-.22,1.43a21.79,21.79,0,0,0-.21,3,2.53,2.53,0,0,0,.17.86,1.25,1.25,0,0,0,.33.49,1.13,1.13,0,0,0,.52.27,3.71,3.71,0,0,0,.47,0,3.73,3.73,0,0,0,.46-.09,2.69,2.69,0,0,0,.92-.44,10.5,10.5,0,0,0,2-2c.59-.71,1.14-1.46,1.72-2.18.3-.37.59-.73.9-1.09,0,.2-.05.4-.08.61-.08.51-.16,1-.26,1.52-.17,1-.38,1.9-.58,2.85s-.38,1.84-.51,2.78-.27,2-.38,3.08a52,52,0,0,0-.35,6,10.41,10.41,0,0,0,.12,1.37c.05.32.11.63.19.94a2.43,2.43,0,0,0,.32.67,2.72,2.72,0,0,0,.29.38,1.91,1.91,0,0,0,.32.24,1.2,1.2,0,0,0,.31.13,2,2,0,0,0,.69.08,1.84,1.84,0,0,0,.9-.34,4,4,0,0,0,.69-.6c.11-.11.21-.22.31-.34a13.71,13.71,0,0,0,.9-1.09c.56-.79,1.11-1.59,1.67-2.39l1.42-2c.5-.7,1-1.4,1.48-2.12s1-1.48,1.48-2.22c.33-.5.65-1,1-1.49,0,.42,0,.85,0,1.28s0,1,0,1.47,0,.89.05,1.33a7,7,0,0,0,.11.92,3.54,3.54,0,0,0,.31.82,1.66,1.66,0,0,0,.76.72,2.22,2.22,0,0,0,2-.18,7.63,7.63,0,0,0,1.76-1.28,15.8,15.8,0,0,0,2.09-2.59,24.28,24.28,0,0,0,1.36-2.32A24.15,24.15,0,0,0,39,125.48c.34-.91.56-1.86.83-2.8s.52-1.84.83-2.75a.84.84,0,0,0-.12-.67.9.9,0,0,0-.58-.41.88.88,0,0,0-.67.12l-.18.15a.86.86,0,0,0-.23.43c-.57,1.67-1,3.4-1.49,5.09-.18.47-.38.93-.57,1.39-.11.26-.25.52-.37.77s-.25.48-.38.72q-.39.72-.81,1.44c-.23.4-.49.78-.76,1.16s-.46.61-.72.91a10.12,10.12,0,0,1-1.12,1.15,5.53,5.53,0,0,1-1,.65l-.28.1,0-.05-.09-.27c-.05-.45-.07-.9-.09-1.35s0-.9,0-1.34,0-.93,0-1.4,0-1,0-1.44c0-.12,0-.24,0-.36a2.74,2.74,0,0,0-.08-.64,1.54,1.54,0,0,0-.47-.77,1.05,1.05,0,0,0-1.23-.11,3.65,3.65,0,0,0-1,1.13c-.58.79-1.11,1.62-1.65,2.44s-1.13,1.73-1.72,2.57l-1.64,2.35c-.72,1-1.41,2-2.1,3l-.3.41c-.13.19-.28.37-.43.55s-.25.29-.37.43-.41.45-.64.66l-.1.07a.47.47,0,0,1,0-.1,3,3,0,0,1-.13-.52c0-.2-.06-.39-.08-.59s0-.48-.05-.71c0-.49,0-1,0-1.47,0-.91.08-1.81.15-2.71s.19-1.87.3-2.81.26-1.93.42-2.9c.08-.45.18-.9.27-1.36s.22-1.06.32-1.59c.2-1,.4-1.9.54-2.87q.09-.59.15-1.17c0-.28.05-.56.06-.84a3.22,3.22,0,0,0,0-.62,1.55,1.55,0,0,0-.39-.94,1.09,1.09,0,0,0-.64-.32l-.23,0-.31,0a1.41,1.41,0,0,0-.37.18,2.79,2.79,0,0,0-.42.35,1.89,1.89,0,0,0-.2.2c-.29.31-.55.63-.81,1-.55.66-1.07,1.33-1.6,2-.27.34-.53.68-.8,1a13.5,13.5,0,0,1-1.49,1.62l-.24.17c0-.4,0-.8.05-1.2.13-1.27.33-2.53.57-3.78a27.06,27.06,0,0,1,1.09-3.63c.35-.92.71-1.83,1.09-2.74s.77-1.68,1.13-2.53c.2-.47.4-1,.59-1.42s.39-1,.54-1.52c.06-.22.12-.44.16-.67a1.71,1.71,0,0,0,0-.87,1,1,0,0,0-.76-.69,1.52,1.52,0,0,0-1,.21,3.76,3.76,0,0,0-.65.48c-.28.23-.54.48-.82.72s-.63.54-.95.8l.18-.15a12.07,12.07,0,0,1-1.05.84,13.72,13.72,0,0,1-1.32.81l-.43.14.12-.36a10.11,10.11,0,0,1,.42-1c.21-.44.43-.88.67-1.31s.44-.84.69-1.24.51-.78.77-1.16l.62-.85c.25-.34.53-.66.79-1s.53-.61.8-.91.57-.61.85-.91.51-.51.76-.76.52-.51.79-.75.56-.52.85-.77l.87-.73,1.16-.89c.38-.29.78-.56,1.17-.84.2-.15.41-.27.62-.4s.38-.24.58-.36c.44-.27.89-.53,1.36-.76.22-.1.44-.18.67-.26a.93.93,0,0,0,.6-1.15,1,1,0,0,0-.61-.61.87.87,0,0,0-.53,0Zm3,34.83a.54.54,0,0,1,.05.11l-.05-.11Zm2.24,6.53h0Zm0,0h0Zm-.29-.06h0Zm.25.12.06,0-.06,0Zm-12,5.78h0Zm-.1,0Z"/>
        <path class="cls-1" d="M47.87,99a.93.93,0,0,0-.34,1.16c0,.29.08.58.14.87s.14.6.2.91l.09.5c.06.34.09.68.13,1s0,.77,0,1.16,0,.78,0,1.17,0,.78,0,1.17-.07.8-.13,1.2-.15,1-.23,1.53c-.15,1-.26,1.93-.41,2.9s-.29,1.79-.5,2.68c-.06.24-.11.49-.17.74s-.14.48-.21.71c-.13.47-.31.93-.47,1.39l-.05.16c-.33.89-.69,1.77-1.1,2.64-.22.46-.49.9-.75,1.34s-.52.83-.79,1.24l0,0a6.9,6.9,0,0,1-.88,1.12l-.19.12h0l-.06-.06-.16-.26a6.7,6.7,0,0,1-.34-1.24c-.09-.61-.16-1.21-.23-1.82,0-.29-.06-.58-.09-.87a3.19,3.19,0,0,1,0-.69c0-.2,0-.4,0-.6a.87.87,0,0,0-.29-.63.9.9,0,0,0-.66-.24.89.89,0,0,0-.63.29l-.14.2a.82.82,0,0,0-.1.46,7.86,7.86,0,0,0,0,.83,7.3,7.3,0,0,0,.08.93c0,.46.1.93.16,1.39s.13,1,.24,1.52a6.69,6.69,0,0,0,.46,1.37,2.26,2.26,0,0,0,1.36,1.19,1.5,1.5,0,0,0,.47.08,3.81,3.81,0,0,0,.47-.07,1.43,1.43,0,0,0,.38-.17,2.64,2.64,0,0,0,.35-.23,4.38,4.38,0,0,0,.92-1c.18-.26.38-.52.55-.78.28-.42.55-.83.8-1.26s.51-.85.71-1.29c.43-.91.81-1.83,1.15-2.77a27.64,27.64,0,0,0,.9-2.8c.22-1,.42-1.93.57-2.91s.26-1.89.4-2.84c.12-.79.25-1.58.34-2.37a22.78,22.78,0,0,0,.15-2.33c0-.35,0-.7,0-1s0-.66,0-1a14.58,14.58,0,0,0-.28-2.09c0-.23-.08-.46-.14-.68s-.09-.36-.12-.55a2.63,2.63,0,0,0-.25-1.08,1,1,0,0,0-.51-.38.88.88,0,0,0-.74.09Zm-.33,1.19Zm-5.1,24.56h0Zm-.13,0h0Zm-.11,0h0Zm.12,0,.07,0-.07,0Zm-.11,0h0l-.11,0,.11,0Z"/>
        <path class="cls-1" d="M28.42,93.69l-1,.47c-.22.11-.43.24-.64.36a9.24,9.24,0,0,0-1.15.82c-.4.31-.78.64-1.15,1s-.71.66-1,1a11.51,11.51,0,0,0-1.8,2.43A5.37,5.37,0,0,0,21,101.6a2.91,2.91,0,0,0,0,.78,2.07,2.07,0,0,0,.29.82,1.31,1.31,0,0,0,.2.28,1.78,1.78,0,0,0,.32.35,3.73,3.73,0,0,0,.37.23,5.44,5.44,0,0,0,.52.19,6,6,0,0,0,1.34.17c.13,0,.26,0,.39.06v0a2.84,2.84,0,0,1-.09.42c-.24.62-.51,1.22-.8,1.81-.15.3-.28.6-.41.91a6.55,6.55,0,0,0-.41,1.15,3.4,3.4,0,0,0-.09.64,2.18,2.18,0,0,0,.06.62,2.31,2.31,0,0,0,.29.71,2.15,2.15,0,0,0,.45.5l.31.22a1.6,1.6,0,0,0,.51.2,2.38,2.38,0,0,0,.53,0,2.7,2.7,0,0,0,.57-.08,7.7,7.7,0,0,0,.94-.26,5.06,5.06,0,0,1,.66-.21h.18c0,.11,0,.22,0,.33-.05.41-.13.82-.21,1.23s-.18,1-.29,1.45a25.07,25.07,0,0,1-.78,2.69,23.05,23.05,0,0,0-.8,2.69,7.38,7.38,0,0,0-.15,1.49,2.34,2.34,0,0,0,.19.9,1.8,1.8,0,0,0,.54.76,2.29,2.29,0,0,0,2.07.16,3.38,3.38,0,0,0,1.26-.76,4.34,4.34,0,0,0,.52-.53,17.58,17.58,0,0,0,1.11-1.5c.61-.9,1.14-1.84,1.75-2.74a7.87,7.87,0,0,1,1-1.1l.13-.09.24.67a4.42,4.42,0,0,0,.57,1.1.92.92,0,0,0,.23.25l.28.19a.78.78,0,0,0,.21.09,3,3,0,0,0,.42.14,2.13,2.13,0,0,0,1.38-.23l.31-.17a3.64,3.64,0,0,0,.45-.35,2.57,2.57,0,0,0,.33-.33,5.61,5.61,0,0,0,.47-.62,11.33,11.33,0,0,0,1-1.91c.28-.63.43-1.29.65-1.94.06-.16.12-.31.19-.46l.35.16a5,5,0,0,0,.76.31l.28.07a3.73,3.73,0,0,0,.48,0,1.84,1.84,0,0,0,.47-.07,1.43,1.43,0,0,0,.45-.21,2.24,2.24,0,0,0,.38-.31,4.35,4.35,0,0,0,.65-.77,7.86,7.86,0,0,0,1-2.29q.12-.39.21-.78a6.32,6.32,0,0,0,.11-.86,22.84,22.84,0,0,0,.2-5.78c-.09-.59-.18-1.19-.32-1.77-.05-.22-.12-.44-.19-.65a2.46,2.46,0,0,0-.3-.81.91.91,0,0,0-1.55,1,9.94,9.94,0,0,1,.39,1.42,17.87,17.87,0,0,1,.25,1.93,15,15,0,0,1,0,2.12c-.07.73-.15,1.46-.23,2.19l-.06.55a5.3,5.3,0,0,1-.19.86l-.31,1a5.34,5.34,0,0,1-.47,1,5.68,5.68,0,0,1-.47.51h0a2,2,0,0,1-.35-.09c-.25-.11-.5-.24-.75-.34a2.69,2.69,0,0,0-.55-.17,1.71,1.71,0,0,0-.87.08,1.75,1.75,0,0,0-.93.94A8.55,8.55,0,0,0,38.1,113c-.1.32-.18.64-.29,1a11.52,11.52,0,0,1-1.13,2.14,2.5,2.5,0,0,1-.34.39l-.1.09a2.21,2.21,0,0,1-.36.23l-.1,0h-.12a2.82,2.82,0,0,1-.18-.29c-.11-.29-.2-.58-.31-.87a2.44,2.44,0,0,1-.1-.24c0-.1-.09-.2-.14-.29a2.1,2.1,0,0,0-.31-.41l-.28-.19a.88.88,0,0,0-.28-.12l-.11,0-.18,0a3.17,3.17,0,0,0-.43,0,2.51,2.51,0,0,0-1.55.87,8.54,8.54,0,0,0-.69.78c-.47.62-.87,1.28-1.28,1.94s-.76,1.19-1.16,1.78q-.26.35-.54.69a5.11,5.11,0,0,1-.52.52,1.92,1.92,0,0,1-.35.23,2.77,2.77,0,0,1-.41.12h-.11a.19.19,0,0,1,0-.07,4.28,4.28,0,0,1,0-.62,12.77,12.77,0,0,1,.65-2.5c.31-.93.61-1.85.87-2.78s.42-1.87.59-2.8c0-.21.07-.41.09-.62a3.2,3.2,0,0,0,0-1.07,1.74,1.74,0,0,0-1-1.24,2.3,2.3,0,0,0-1.51-.09,7.36,7.36,0,0,0-.71.22,6.21,6.21,0,0,1-.81.24h-.2l-.08,0h0s0,0,0-.05l-.09-.15v0a1.21,1.21,0,0,1,0-.19,3.53,3.53,0,0,1,.16-.64c.37-.9.82-1.76,1.19-2.66a5.07,5.07,0,0,0,.43-1.24c0-.2,0-.41,0-.62a2.14,2.14,0,0,0-.07-.43,1.51,1.51,0,0,0-.21-.49,1.5,1.5,0,0,0-.29-.33,1.74,1.74,0,0,0-.62-.32,2.36,2.36,0,0,0-.46-.1c-.26,0-.51-.05-.77-.06a4.34,4.34,0,0,1-.8-.15l-.09,0-.13-.2,0,0c0-.1,0-.19,0-.29a2.74,2.74,0,0,1,.09-.39,9.66,9.66,0,0,1,.84-1.59,15,15,0,0,1,1.21-1.43c.28-.29.56-.56.85-.83s.47-.42.71-.63l.55-.43c.21-.16.43-.3.64-.44s.42-.24.62-.36.51-.24.76-.36l-.14.06.06,0,.22-.1A1,1,0,0,0,29.5,95a.92.92,0,0,0-.38-1.23L29,93.69a.83.83,0,0,0-.54,0ZM43.17,99.9a.08.08,0,0,1,0,0l0,0ZM23,102.46l.05,0-.05,0Zm1.35,1.84.06.06-.06-.06Zm17.77,7h0Zm-.23,0h0Zm.06,0h0Zm-1.61,1,0,0,0,0Zm-.14.14Zm-15.79-3v.06h0a.13.13,0,0,1,0-.06Zm0,.06h0Zm0,.16h0Zm0,0h0Zm0,.06.08.06h0l-.08-.06ZM27,111.06l0,0,0,0Zm0,.06,0,0,0,0Zm6.49,5,0,0,0,0Zm-6.82,5.09h0Zm.08,0h0Zm0,.11,0,0,0,0Zm2-25.88.07,0-.07,0Z"/>
        <path class="cls-1" d="M54.76,42.17c-.66.24-1.33.48-2,.74l-1,.41-1,.44c-.6.27-1.18.58-1.76.9s-1.42.79-2.12,1.2l-.32.18a.6.6,0,0,0-.25.42.65.65,0,0,0,.11.47.66.66,0,0,0,.42.25.7.7,0,0,0,.47-.11l1.57-.91c.46-.25.91-.51,1.38-.74L51,45c.29-.13.57-.27.86-.39,1.12-.46,2.26-.89,3.41-1.3a.64.64,0,0,0,.36-.82.66.66,0,0,0-.4-.37.7.7,0,0,0-.43,0Z"/>
        <path class="cls-1" d="M55.38,43.89c-.65.27-1.3.53-2,.82s-1.25.56-1.87.85-1.26.6-1.88.92-1.3.69-1.93,1.06l-.52.3a.62.62,0,0,0-.25.43.58.58,0,0,0,.11.46.67.67,0,0,0,.42.26.71.71,0,0,0,.47-.12c.36-.22.72-.42,1.09-.63l1.66-.88c.57-.29,1.15-.55,1.72-.82,1.12-.52,2.25-1,3.39-1.47a.63.63,0,0,0-.05-1.19.53.53,0,0,0-.41,0Z"/>
        <path class="cls-1" d="M56.14,45.5c-.63.21-1.27.43-1.89.68s-1.3.57-1.94.88l-.9.47-.93.47c-.74.38-1.47.77-2.2,1.16a.65.65,0,0,0-.35.34.63.63,0,0,0,.33.83.57.57,0,0,0,.48,0l2.2-1.16.91-.46c.3-.16.61-.33.92-.48.64-.31,1.28-.6,1.94-.88s1.26-.46,1.9-.68a.63.63,0,0,0,.35-.82.62.62,0,0,0-.39-.37.7.7,0,0,0-.43,0Z"/>
        <path class="cls-1" d="M56.12,47.11l-5.58,3.06-1.28.62a.68.68,0,0,0-.35.34.64.64,0,0,0,0,.49.65.65,0,0,0,.83.37c.6-.29,1.19-.58,1.77-.9l1.41-.79,3.68-2,.14-.08a.54.54,0,0,0,.21-.26.64.64,0,0,0,0-.49.65.65,0,0,0-.34-.35l-.06,0a.63.63,0,0,0-.43,0Z"/>
        <path class="cls-1" d="M57.47,48.5l-1.95,1c-.64.34-1.27.69-1.9,1l-1.18.56-.58.25-.86.36a.63.63,0,0,0,.46,1.18l1.28-.53c.29-.12.56-.26.84-.39.62-.29,1.21-.63,1.8-1,.85-.45,1.7-.9,2.56-1.34a.68.68,0,0,0,.35-.34.62.62,0,0,0,0-.48.59.59,0,0,0-.34-.35l-.06,0a.58.58,0,0,0-.43,0Z"/>
        <path class="cls-1" d="M39.6,47.84a.68.68,0,0,0-.46.11c-.39.22-.75.49-1.12.75a.64.64,0,1,0,.75,1c.37-.26.73-.53,1.12-.75a.6.6,0,0,0,.25-.42.65.65,0,0,0-.12-.47.62.62,0,0,0-.32-.23l-.1,0Z"/>
        <path class="cls-1" d="M38.74,49.86c-.24.09-.48.18-.72.29a.66.66,0,0,0-.36.83.65.65,0,0,0,.83.36c.24-.11.48-.2.72-.3a.64.64,0,0,0-.05-1.2.61.61,0,0,0-.42,0Z"/>
        <path class="cls-1" d="M40.08,50.64c-.35.15-.7.3-1,.47l-1.16.62a.65.65,0,0,0-.35.34.62.62,0,0,0,0,.48.59.59,0,0,0,.34.35.57.57,0,0,0,.48,0c.37-.2.73-.4,1.11-.58s.72-.35,1.09-.5A.65.65,0,0,0,40.9,51a.67.67,0,0,0-.41-.38.58.58,0,0,0-.41,0Z"/>
        <path class="cls-1" d="M40.76,52.38l-2.25,1.15a.68.68,0,0,0-.35.34.64.64,0,0,0,0,.49.65.65,0,0,0,.34.35.64.64,0,0,0,.49,0l2.24-1.15a.7.7,0,0,0,.36-.34.64.64,0,0,0,0-.49.66.66,0,0,0-.33-.35l-.07,0a.55.55,0,0,0-.42,0Z"/>
        <path class="cls-1" d="M39.46,54.89a.64.64,0,0,0-.34.33.59.59,0,0,0,0,.47.56.56,0,0,0,.33.34.64.64,0,0,0,.47,0,.63.63,0,0,0,.35-.33.64.64,0,0,0,0-.47.63.63,0,0,0-.33-.35.66.66,0,0,0-.48,0Z"/>
        <path class="cls-1" d="M42.28,53.38c-.48.25-.93.57-1.39.87l-1.5,1a.65.65,0,0,0-.14.89.66.66,0,0,0,.89.13l1.45-1c.38-.25.76-.51,1.15-.74h0a.67.67,0,0,0,.35-.33.62.62,0,0,0,0-.48.63.63,0,0,0-.33-.35l-.07,0a.61.61,0,0,0-.42,0Z"/>
        <path class="cls-1" d="M43.85,55.58a12.13,12.13,0,0,0-1.42.53c-.52.21-1,.44-1.57.67a.65.65,0,0,0-.36.83.66.66,0,0,0,.83.36c.52-.23,1-.46,1.57-.67a12,12,0,0,1,1.41-.53.62.62,0,0,0,.35-.34.64.64,0,0,0,0-.49.63.63,0,0,0-.34-.36l-.06,0a.68.68,0,0,0-.42,0Z"/>
        <path class="cls-1" d="M45,56.71c-.35.12-.69.29-1,.44l-1.18.53a.64.64,0,0,0,.47,1.19l1.16-.53c.34-.16.68-.32,1-.45a.63.63,0,0,0,0-1.19.7.7,0,0,0-.43,0Z"/>
        <path class="cls-1" d="M47,57.49,44,58.61a.63.63,0,0,0-.36.82.64.64,0,0,0,.82.37c1-.39,2.05-.76,3.08-1.12a.63.63,0,0,0,.36-.83.65.65,0,0,0-.39-.37.7.7,0,0,0-.43,0Z"/>
        <path class="cls-1" d="M50.28,58.28c-.56.21-1.1.47-1.64.73s-1.22.61-1.83.92a.75.75,0,0,0-.35.33.69.69,0,0,0,0,.49.72.72,0,0,0,.34.35.62.62,0,0,0,.48,0c.6-.31,1.19-.62,1.8-.91s1.1-.53,1.67-.74a.65.65,0,0,0,.36-.82.63.63,0,0,0-.4-.37.56.56,0,0,0-.42,0Z"/>
        <path class="cls-1" d="M53.09,58.29c-1.38.61-2.74,1.29-4.09,2a.65.65,0,0,0-.35.34.64.64,0,0,0,0,.49.65.65,0,0,0,.34.35.62.62,0,0,0,.48,0c1.36-.68,2.71-1.36,4.1-2a.64.64,0,0,0,.36-.82.61.61,0,0,0-.42-.38.58.58,0,0,0-.41,0Z"/>
        <path class="cls-1" d="M57.05,57.56a7.67,7.67,0,0,0-.8.43l-.61.34L54.52,59l-2.93,1.65a.6.6,0,0,0-.25.43.63.63,0,0,0,.11.46.67.67,0,0,0,.43.26.68.68,0,0,0,.46-.12l5-2.8.19-.09a.65.65,0,0,0,.36-.83.61.61,0,0,0-.41-.37.58.58,0,0,0-.41,0Z"/>
        <path class="cls-1" d="M60.52,57.15a.64.64,0,0,0-.46.12c-1.82,1.09-3.62,2.22-5.43,3.34a.65.65,0,0,0-.14.89.62.62,0,0,0,.43.25.66.66,0,0,0,.47-.11c1.8-1.12,3.6-2.25,5.42-3.34a.62.62,0,0,0,.25-.43.58.58,0,0,0-.11-.46.68.68,0,0,0-.32-.24l-.11,0Z"/>
        <path class="cls-1" d="M39.93,49.15c-.48.22-1,.45-1.43.69a.77.77,0,0,0-.35.34.69.69,0,0,0,0,.49.65.65,0,0,0,.34.35A.64.64,0,0,0,39,51c.47-.25.94-.48,1.42-.7a.64.64,0,0,0,.36-.82.67.67,0,0,0-.41-.38.58.58,0,0,0-.41,0Z"/>
        <path class="cls-1" d="M58.3,113.17a.64.64,0,0,0-.34.33.64.64,0,0,0,0,.47.63.63,0,0,0,.33.35.72.72,0,0,0,.48,0,.64.64,0,0,0,.34-.33.62.62,0,0,0-.32-.82.72.72,0,0,0-.48,0Z"/>
        <path class="cls-1" d="M26.73,88a8.49,8.49,0,0,0-.49,1.11,7.47,7.47,0,0,0-.21.91,6,6,0,0,0-.11.94v.17a.56.56,0,0,0,.12.3.65.65,0,0,0,.42.26.67.67,0,0,0,.47-.12.6.6,0,0,0,.25-.43,6.5,6.5,0,0,1,.23-1.51,6.92,6.92,0,0,1,.49-1.12.65.65,0,0,0-.33-.84l-.07,0a.66.66,0,0,0-.77.36Z"/>
        <path class="cls-1" d="M28.9,88.58l-.32.75c-.07.17-.13.35-.19.53s-.14.47-.2.7A7.76,7.76,0,0,0,28,91.62a.64.64,0,0,0,.54.72.65.65,0,0,0,.73-.54,8.51,8.51,0,0,1,.17-1.11c.07-.24.15-.48.23-.72s.25-.59.37-.88a.64.64,0,0,0-.33-.84l-.06,0a.64.64,0,0,0-.78.35Z"/>
        <path class="cls-1" d="M31.6,89.67a16.47,16.47,0,0,0-1.18,3.23.64.64,0,0,0,.54.72.65.65,0,0,0,.72-.54c0-.16.07-.32.11-.48a11.57,11.57,0,0,1,.41-1.12c.18-.43.37-.87.56-1.3a.64.64,0,0,0-.32-.83l-.06,0a.66.66,0,0,0-.78.35Z"/>
        <path class="cls-1" d="M33.07,90.44a15.48,15.48,0,0,0-.56,1.75,6.83,6.83,0,0,0-.18.81l-.15.85a.64.64,0,0,0,1.26.18,15.69,15.69,0,0,1,.37-1.81A11.86,11.86,0,0,1,34.24,91a.65.65,0,0,0-.33-.84l-.06,0a.65.65,0,0,0-.78.35Z"/>
        <path class="cls-1" d="M35.59,90.79a.65.65,0,0,0-.35.34c-.11.37-.22.74-.31,1.12s-.12.57-.18.85c-.13.62-.26,1.24-.38,1.86a.64.64,0,1,0,1.26.19c.2-1,.4-2,.64-3,0-.15.09-.31.14-.47a.69.69,0,0,0,0-.49.65.65,0,0,0-.34-.35l-.06,0a.7.7,0,0,0-.43,0Zm.65,1.41v0Z"/>
        <path class="cls-1" d="M38.09,91.74a.66.66,0,0,0-.47.12L37.5,92a.58.58,0,0,0-.13.31c-.08.26-.15.52-.22.78q-.4,1.38-.9,2.73a.75.75,0,0,0,0,.49.72.72,0,0,0,.34.35.64.64,0,0,0,.84-.33c.21-.58.41-1.17.59-1.76s.42-1.38.62-2.08a.61.61,0,0,0-.12-.47.73.73,0,0,0-.32-.23l-.1,0Zm-1,1.34,0,.09,0-.09Z"/>
        <path class="cls-1" d="M39.81,92.56c-.25.56-.47,1.13-.69,1.7s-.42,1-.64,1.56a.65.65,0,0,0,.33.84.63.63,0,0,0,.83-.33c.22-.51.43-1,.63-1.54s.45-1.15.7-1.73a.63.63,0,0,0-.33-.83l-.06,0a.63.63,0,0,0-.77.35Z"/>
        <path class="cls-1" d="M41.66,93.09c-.44,1.12-.82,2.27-1.26,3.4a.65.65,0,0,0,.33.84.63.63,0,0,0,.84-.33c.44-1.13.82-2.28,1.26-3.4a.64.64,0,0,0-.33-.84l-.06,0a.64.64,0,0,0-.78.36Z"/>
        <path class="cls-1" d="M44,93.7c-.23.67-.49,1.31-.76,2s-.51,1.33-.77,2a.63.63,0,1,0,1.16.51c.26-.67.5-1.34.78-2s.53-1.29.76-2a.66.66,0,0,0,0-.48.6.6,0,0,0-.33-.35l-.06,0a.65.65,0,0,0-.78.35Z"/>
        <path class="cls-1" d="M45.87,94.6c-.2.46-.4.92-.58,1.38l-.27.68c-.09.24-.16.48-.23.72a.61.61,0,0,0,0,.48.59.59,0,0,0,.34.35.62.62,0,0,0,.48,0,.55.55,0,0,0,.35-.33c.08-.24.15-.48.24-.72l.27-.68c.18-.47.38-.92.57-1.38a.65.65,0,0,0-.33-.84l-.06,0a.63.63,0,0,0-.77.35Z"/>
        <path class="cls-1" d="M48.53,94.3a.65.65,0,0,0-.35.34c-.18.6-.35,1.2-.53,1.8s-.38,1.2-.58,1.79a.75.75,0,0,0,0,.49.65.65,0,0,0,.34.35.64.64,0,0,0,.49,0,.62.62,0,0,0,.35-.34c.19-.59.39-1.19.58-1.79s.35-1.2.53-1.8a.69.69,0,0,0,0-.49.68.68,0,0,0-.34-.35l-.06,0a.64.64,0,0,0-.43,0Z"/>
        <path class="cls-1" d="M49.94,95.08c-.11.21-.21.43-.31.64s-.2.58-.3.87-.26.79-.38,1.18a.62.62,0,0,0,0,.48.6.6,0,0,0,.33.35.64.64,0,0,0,.49,0,.6.6,0,0,0,.35-.33l.36-1.12c.09-.28.18-.56.28-.83a5.53,5.53,0,0,1,.35-.74.64.64,0,0,0-.33-.83l-.06,0a.66.66,0,0,0-.77.35Z"/>
        <path class="cls-1" d="M25,87.94c-.28.57-.57,1.13-.87,1.69a.64.64,0,0,0,.33.84.63.63,0,0,0,.84-.33c.3-.56.59-1.12.86-1.69a.65.65,0,0,0-.33-.84l-.06,0a.64.64,0,0,0-.77.35Z"/>
        <path class="cls-1" d="M48.78,23.16l-2.2,2.3c-.43.45-.87.89-1.28,1.36l-1.71,1.94-.42.51-.93,1.13c-.44.53-.85,1.08-1.27,1.63-.13.16-.24.32-.36.49l-.85,1.22c-.2.27-.4.55-.58.83l-.39.62c-.48.78-1,1.55-1.46,2.33-.27.44-.52.9-.79,1.34-.43.75-.87,1.5-1.31,2.25-.28.48-.53,1-.79,1.46-.41.75-.81,1.51-1.22,2.27-.26.48-.49,1-.73,1.46l-1.14,2.33c-.25.49-.46,1-.69,1.49l-1.05,2.31c-.25.55-.47,1.11-.71,1.67s-.56,1.27-.82,1.91l-1.56,3.81c-1.1,2.69-2.23,5.38-3.35,8.06-.31.75-.63,1.5-1,2.25a.64.64,0,0,0,.3.85.63.63,0,0,0,.85-.29c1.13-2.67,2.24-5.35,3.36-8,.49-1.19,1-2.39,1.46-3.59s1.09-2.65,1.66-4c.29-.7.59-1.39.88-2.08s.58-1.27.87-1.9l.6-1.32.24-.53c.33-.67.66-1.33,1-2L34.05,46c.09-.18.17-.37.27-.54l1-1.92L36,42.3c.09-.18.18-.37.29-.55l1.11-1.91c.4-.68.79-1.36,1.21-2,.54-.86,1.07-1.73,1.62-2.59l1.33-1.91c.39-.55.82-1.07,1.23-1.61s.89-1.09,1.34-1.64.82-1,1.24-1.44.65-.73,1-1.1.44-.46.66-.69c.9-.95,1.8-1.89,2.71-2.83a.64.64,0,0,0-.07-.9.71.71,0,0,0-.22-.13.7.7,0,0,0-.68.19Z"/>
        <path class="cls-1" d="M71.28,31.92a.64.64,0,0,0-.58.69c.07.92.12,1.83.17,2.75,0,.26,0,.53,0,.79v1.17c0,.32,0,.64,0,1s0,.68,0,1c0,.64-.06,1.29-.08,1.94-.1,1.36-.2,2.73-.34,4.09-.08.69-.15,1.37-.23,2.06s-.13,1.29-.23,1.93c-.12.8-.24,1.6-.35,2.41,0,.26-.09.53-.14.79-.08.5-.16,1-.25,1.5s-.2,1.14-.3,1.71-.22,1.33-.35,2l-.51,2.59c-.12.58-.26,1.16-.39,1.74-.31,1.33-.6,2.65-.94,4-.18.7-.36,1.41-.55,2.11l-.57,2c-.39,1.33-.78,2.65-1.2,4L64,75.35q-1.34,3.93-2.78,7.83c-.06.18-.13.35-.2.53a.72.72,0,0,0,0,.5.65.65,0,0,0,.32.35.62.62,0,0,0,.5,0,.61.61,0,0,0,.35-.32c.48-1.28.94-2.57,1.4-3.85.24-.68.5-1.36.73-2s.55-1.58.82-2.38.44-1.39.66-2.08.42-1.35.62-2c.4-1.32.77-2.65,1.14-4s.68-2.69,1-4c.17-.7.32-1.4.49-2.1.12-.55.24-1.1.35-1.65.15-.75.31-1.5.44-2.25s.29-1.6.43-2.4c.1-.57.2-1.15.29-1.72s.23-1.29.33-1.94c.12-.86.25-1.71.37-2.56,0-.21,0-.42.08-.64.05-.49.11-1,.16-1.48.15-1.28.3-2.57.39-3.87,0-.7.11-1.41.14-2.11s.07-1.4.08-2.1c0-1.42.07-2.84,0-4.26,0-.76-.08-1.51-.14-2.27a.63.63,0,0,0-.45-.55.5.5,0,0,0-.24,0Z"/>
      </g>
    </g>
  </g>
</svg>
