<svg xmlns="http://www.w3.org/2000/svg" width="17.59mm" height="22.49mm" viewBox="0 0 49.86 63.76">
  <defs>
    <style>
      .cls-1 {
        fill: none;
        stroke: #000;
        stroke-miterlimit: 10;
        stroke-width: 2px;
      }
    </style>
  </defs>
  <title>woman</title>
  <g id="Capa_2" data-name="Capa 2">
    <g id="Capa_1-2" data-name="Capa 1">
      <g>
        <path class="cls-1" d="M20.42,34.46a7.22,7.22,0,0,1-1.71,5.35,4.83,4.83,0,0,1-.51.5L25,56l7.35-15.5a5.79,5.79,0,0,1-.77-.69,7.51,7.51,0,0,1-1.46-5.37"/>
        <path class="cls-1" d="M48,63.53c2.58-13.5-.32-18.92-15.67-23"/>
        <path class="cls-1" d="M18.2,40.31l-6,2.21c-10.82,4-13,8.33-9.93,21"/>
        <line class="cls-1" x1="40.76" y1="59" x2="32.56" y2="59"/>
        <path class="cls-1" d="M21.37,13.29c2.77,0,9.36-.48,11.25-3.28,2.09,2.17,3.76,8.73,3.76,12.18,0,6.54-4.64,13.53-10.48,13.53S15.33,30.41,15.33,23.87s.2-10.58,6-10.58Z"/>
        <path class="cls-1" d="M43,43.73C46.67,39.43,44,34.84,44,28,44,15,43.69.16,25.52,1S6.84,11.59,6.84,24.62c0,8.18.14,14.4,2.8,17.9"/>
      </g>
    </g>
  </g>
</svg>
